<svg width="40" height="40" viewBox="0 0 40 40" fill="none" xmlns="http://www.w3.org/2000/svg">
<rect width="40" height="40" rx="8" fill="url(#paint0_linear_1_9)"/>
<g clip-path="url(#clip0_1_9)">
<path d="M25.596 20.768C25.9711 21.1431 26.48 21.3539 27.0105 21.3539C27.541 21.3539 28.0499 21.1431 28.425 20.768C28.8001 20.3929 29.0109 19.884 29.0109 19.3535C29.0109 18.823 28.8001 18.3141 28.425 17.939L26.657 16.172C27.0321 16.547 27.5409 16.7576 28.0714 16.7576C28.334 16.7575 28.5941 16.7057 28.8367 16.6052C29.0794 16.5046 29.2998 16.3573 29.4855 16.1715C29.6712 15.9857 29.8185 15.7652 29.9189 15.5226C30.0194 15.2799 30.0711 15.0198 30.0711 14.7571C30.071 14.4945 30.0192 14.2344 29.9187 13.9918C29.8181 13.7491 29.6708 13.5287 29.485 13.343L26.657 10.515C26.282 10.1399 25.7733 9.92904 25.2429 9.92895C24.7124 9.92885 24.2036 10.1395 23.8285 10.5145C23.4534 10.8895 23.2425 11.3982 23.2424 11.9286C23.2424 12.4591 23.453 12.9679 23.828 13.343L22.061 11.575C21.8752 11.3892 21.6547 11.2419 21.412 11.1414C21.1693 11.0408 20.9092 10.9891 20.6465 10.9891C20.3838 10.9891 20.1237 11.0408 19.881 11.1414C19.6383 11.2419 19.4178 11.3892 19.232 11.575C19.0462 11.7608 18.8989 11.9813 18.7984 12.224C18.6978 12.4667 18.6461 12.7268 18.6461 12.9895C18.6461 13.2522 18.6978 13.5123 18.7984 13.755C18.8989 13.9977 19.0462 14.2182 19.232 14.404L25.596 20.768Z" stroke="white" stroke-width="2" stroke-linecap="round" stroke-linejoin="round"/>
<path d="M10.5 29.5L11.9 28.1" stroke="white" stroke-width="2" stroke-linecap="round" stroke-linejoin="round"/>
<path d="M28.1 11.9L29.5 10.5" stroke="white" stroke-width="2" stroke-linecap="round" stroke-linejoin="round"/>
<path d="M13.343 29.485C13.718 29.8601 14.2267 30.071 14.7571 30.0711C15.0198 30.0711 15.2799 30.0194 15.5226 29.9189C15.7652 29.8185 15.9857 29.6712 16.1715 29.4855C16.3573 29.2998 16.5046 29.0794 16.6052 28.8367C16.7057 28.5941 16.7575 28.334 16.7576 28.0714C16.7576 27.8087 16.7059 27.5486 16.6054 27.3059C16.505 27.0633 16.3577 26.8428 16.172 26.657L17.939 28.425C18.3141 28.8001 18.823 29.0109 19.3535 29.0109C19.884 29.0109 20.3928 28.8001 20.768 28.425C21.1431 28.0499 21.3539 27.541 21.3539 27.0105C21.3539 26.48 21.1431 25.9711 20.768 25.596L14.404 19.232C14.2182 19.0462 13.9977 18.8989 13.755 18.7984C13.5123 18.6978 13.2522 18.6461 12.9895 18.6461C12.7268 18.6461 12.4667 18.6978 12.224 18.7984C11.9813 18.8989 11.7608 19.0462 11.575 19.232C11.3892 19.4178 11.2419 19.6383 11.1414 19.881C11.0408 20.1237 10.9891 20.3838 10.9891 20.6465C10.9891 20.9092 11.0408 21.1693 11.1414 21.412C11.2419 21.6547 11.3892 21.8752 11.575 22.061L13.343 23.828C12.9679 23.453 12.4591 23.2424 11.9286 23.2424C11.3982 23.2425 10.8895 23.4534 10.5145 23.8285C10.1395 24.2036 9.92885 24.7124 9.92895 25.2429C9.92904 25.7733 10.1399 26.282 10.515 26.657L13.343 29.485Z" stroke="white" stroke-width="2" stroke-linecap="round" stroke-linejoin="round"/>
<path d="M17.6 22.4L22.4 17.6" stroke="white" stroke-width="2" stroke-linecap="round" stroke-linejoin="round"/>
</g>
<defs>
<linearGradient id="paint0_linear_1_9" x1="0" y1="0" x2="40" y2="40" gradientUnits="userSpaceOnUse">
<stop offset="0.0431187" stop-color="#22D3EE"/>
<stop offset="1" stop-color="#3B82F6"/>
</linearGradient>
<clipPath id="clip0_1_9">
<rect width="24" height="24" fill="white" transform="translate(8 8)"/>
</clipPath>
</defs>
</svg>
