<svg width="72" height="72" viewBox="0 0 72 72" fill="none" xmlns="http://www.w3.org/2000/svg">
<rect width="72" height="72" rx="20" fill="url(#paint0_linear_1_9)"/>
<path d="M45.793 37.344C46.4495 38.0005 47.3399 38.3693 48.2684 38.3693C49.1968 38.3693 50.0872 38.0005 50.7438 37.344C51.4003 36.6875 51.7691 35.7971 51.7691 34.8686C51.7691 33.9402 51.4003 33.0498 50.7438 32.3933L47.6498 29.301C48.3063 29.9573 49.1966 30.3259 50.1249 30.3257C50.5845 30.3256 51.0396 30.235 51.4643 30.059C51.8889 29.8831 52.2747 29.6252 52.5996 29.3001C52.9246 28.9751 53.1823 28.5892 53.3581 28.1645C53.534 27.7398 53.6244 27.2846 53.6243 26.825C53.6243 26.3654 53.5336 25.9102 53.3577 25.4856C53.1817 25.061 52.9238 24.6752 52.5988 24.3503L47.6498 19.4013C46.9935 18.7447 46.1033 18.3758 45.175 18.3757C44.2467 18.3755 43.3564 18.7441 42.6999 19.4004C42.0434 20.0567 41.6745 20.9468 41.6743 21.8751C41.6741 22.8034 42.0427 23.6937 42.699 24.3503L39.6068 21.2563C39.2817 20.9312 38.8958 20.6733 38.471 20.4974C38.0463 20.3215 37.5911 20.2309 37.1314 20.2309C36.6717 20.2309 36.2164 20.3215 35.7917 20.4974C35.367 20.6733 34.9811 20.9312 34.656 21.2563C34.3309 21.5813 34.0731 21.9672 33.8971 22.392C33.7212 22.8167 33.6307 23.2719 33.6307 23.7316C33.6307 24.1913 33.7212 24.6466 33.8971 25.0713C34.0731 25.496 34.3309 25.8819 34.656 26.207L45.793 37.344Z" stroke="white" stroke-width="2" stroke-linecap="round" stroke-linejoin="round"/>
<path d="M19.375 52.625L21.825 50.175" stroke="white" stroke-width="2" stroke-linecap="round" stroke-linejoin="round"/>
<path d="M50.175 21.825L52.625 19.375" stroke="white" stroke-width="2" stroke-linecap="round" stroke-linejoin="round"/>
<path d="M24.3502 52.5988C25.0065 53.2553 25.8967 53.6242 26.825 53.6243C27.2846 53.6244 27.7398 53.534 28.1645 53.3581C28.5892 53.1823 28.9751 52.9246 29.3001 52.5996C29.6252 52.2747 29.8831 51.8889 30.059 51.4643C30.235 51.0396 30.3256 50.5845 30.3257 50.1249C30.3258 49.6652 30.2353 49.2101 30.0595 48.7854C29.8837 48.3607 29.626 47.9748 29.301 47.6498L32.3932 50.7438C33.0498 51.4003 33.9402 51.7691 34.8686 51.7691C35.7971 51.7691 36.6875 51.4003 37.344 50.7438C38.0005 50.0872 38.3693 49.1968 38.3693 48.2684C38.3693 47.3399 38.0005 46.4495 37.344 45.793L26.207 34.656C25.8819 34.3309 25.496 34.0731 25.0713 33.8971C24.6466 33.7212 24.1913 33.6307 23.7316 33.6307C23.2719 33.6307 22.8167 33.7212 22.392 33.8971C21.9672 34.0731 21.5813 34.3309 21.2562 34.656C20.9312 34.9811 20.6733 35.367 20.4974 35.7917C20.3215 36.2164 20.2309 36.6717 20.2309 37.1314C20.2309 37.5911 20.3215 38.0463 20.4974 38.471C20.6733 38.8958 20.9312 39.2817 21.2562 39.6068L24.3502 42.699C23.6937 42.0427 22.8034 41.6741 21.8751 41.6743C20.9468 41.6745 20.0566 42.0434 19.4004 42.6999C18.7441 43.3564 18.3755 44.2467 18.3757 45.175C18.3758 46.1033 18.7447 46.9935 19.4012 47.6498L24.3502 52.5988Z" stroke="white" stroke-width="2" stroke-linecap="round" stroke-linejoin="round"/>
<path d="M31.8 40.2L40.2 31.8" stroke="white" stroke-width="2" stroke-linecap="round" stroke-linejoin="round"/>
<defs>
<linearGradient id="paint0_linear_1_9" x1="0" y1="0" x2="72" y2="72" gradientUnits="userSpaceOnUse">
<stop offset="0.0431187" stop-color="#22D3EE"/>
<stop offset="1" stop-color="#3B82F6"/>
</linearGradient>
</defs>
</svg>
