<svg width="72" height="72" viewBox="0 0 72 72" fill="none" xmlns="http://www.w3.org/2000/svg">
<rect x="0.5" y="0.5" width="71" height="71" rx="19.5" fill="#1E1E1E" stroke="#3C3C3C"/>
<path d="M13.8995 46.04C12.6195 46.04 11.6795 45.8333 11.0795 45.42C10.4795 45.0067 10.1795 44.2667 10.1795 43.2C10.1795 42.72 10.1929 42.3067 10.2195 41.96C10.2595 41.6 10.2929 41.2533 10.3195 40.92C10.3595 40.5867 10.3795 40.2067 10.3795 39.78C10.3795 39.54 10.2995 39.3133 10.1395 39.1C9.97953 38.8733 9.69953 38.6867 9.29953 38.54C8.91286 38.3933 8.35953 38.3133 7.63953 38.3V36.58C8.35953 36.5667 8.91286 36.4867 9.29953 36.34C9.69953 36.1933 9.97953 36.0133 10.1395 35.8C10.2995 35.5733 10.3795 35.34 10.3795 35.1C10.3795 34.6867 10.3595 34.3133 10.3195 33.98C10.2929 33.6333 10.2595 33.28 10.2195 32.92C10.1929 32.56 10.1795 32.1467 10.1795 31.68C10.1795 30.6 10.4795 29.86 11.0795 29.46C11.6795 29.0467 12.6195 28.84 13.8995 28.84H15.4395V30.4H14.6195C14.0729 30.4 13.6529 30.44 13.3595 30.52C13.0662 30.6 12.8595 30.74 12.7395 30.94C12.6329 31.14 12.5795 31.4267 12.5795 31.8C12.5795 32.3333 12.5929 32.86 12.6195 33.38C12.6595 33.9 12.6795 34.46 12.6795 35.06C12.6795 35.82 12.5262 36.3733 12.2195 36.72C11.9129 37.0533 11.3995 37.28 10.6795 37.4V37.48C11.3995 37.6 11.9129 37.8333 12.2195 38.18C12.5262 38.5133 12.6795 39.06 12.6795 39.82C12.6795 40.42 12.6595 40.98 12.6195 41.5C12.5929 42.02 12.5795 42.5467 12.5795 43.08C12.5795 43.4533 12.6329 43.74 12.7395 43.94C12.8595 44.14 13.0662 44.28 13.3595 44.36C13.6529 44.44 14.0729 44.48 14.6195 44.48H15.4395V46.04H13.8995ZM34.9639 43.24C34.2439 43.24 33.4906 43.08 32.7039 42.76C31.9306 42.44 31.2572 41.88 30.6839 41.08L32.3839 39.26C32.7572 39.7267 33.1572 40.0867 33.5839 40.34C34.0106 40.58 34.4372 40.7 34.8639 40.7C35.5306 40.7 36.0306 40.5267 36.3639 40.18C36.7106 39.8333 36.8839 39.2133 36.8839 38.32V32.42H31.7839V29.96H39.8239V38.56C39.8239 39.4133 39.6639 40.1933 39.3439 40.9C39.0372 41.6067 38.5306 42.1733 37.8239 42.6C37.1306 43.0267 36.1772 43.24 34.9639 43.24ZM55.5883 46.04V44.48H56.4083C56.9549 44.48 57.3749 44.44 57.6683 44.36C57.9616 44.28 58.1616 44.14 58.2683 43.94C58.3749 43.74 58.4283 43.4533 58.4283 43.08C58.4283 42.5467 58.4149 42.02 58.3883 41.5C58.3616 40.98 58.3483 40.42 58.3483 39.82C58.3483 39.06 58.5016 38.5133 58.8083 38.18C59.1149 37.8333 59.6283 37.6 60.3483 37.48V37.4C59.6283 37.28 59.1149 37.0533 58.8083 36.72C58.5016 36.3733 58.3483 35.82 58.3483 35.06C58.3483 34.46 58.3616 33.9 58.3883 33.38C58.4149 32.86 58.4283 32.3333 58.4283 31.8C58.4283 31.4267 58.3749 31.14 58.2683 30.94C58.1616 30.74 57.9616 30.6 57.6683 30.52C57.3749 30.44 56.9549 30.4 56.4083 30.4H55.5883V28.84H57.1283C58.4083 28.84 59.3483 29.0467 59.9483 29.46C60.5483 29.86 60.8483 30.6 60.8483 31.68C60.8483 32.1467 60.8283 32.56 60.7883 32.92C60.7616 33.28 60.7283 33.6333 60.6883 33.98C60.6483 34.3133 60.6283 34.6867 60.6283 35.1C60.6283 35.34 60.7083 35.5733 60.8683 35.8C61.0283 36.0133 61.3083 36.1933 61.7083 36.34C62.1083 36.4867 62.6683 36.5667 63.3883 36.58V38.3C62.6683 38.3133 62.1083 38.3933 61.7083 38.54C61.3083 38.6867 61.0283 38.8733 60.8683 39.1C60.7083 39.3133 60.6283 39.54 60.6283 39.78C60.6283 40.2067 60.6483 40.5867 60.6883 40.92C60.7283 41.2533 60.7616 41.6 60.7883 41.96C60.8283 42.3067 60.8483 42.72 60.8483 43.2C60.8483 44.2667 60.5483 45.0067 59.9483 45.42C59.3483 45.8333 58.4083 46.04 57.1283 46.04H55.5883Z" fill="#FFD700"/>
</svg>
